<mxfile host="app.diagrams.net" modified="2023-11-02T13:17:23.423Z" agent="Mozilla/5.0 (Windows NT 10.0; Win64; x64) AppleWebKit/537.36 (KHTML, like Gecko) Chrome/118.0.0.0 Safari/537.36" etag="CN_bFVo8Ni7Bw2y74Xzf" version="22.0.8" type="device">
  <diagram name="第 1 页" id="Mm0hC2-zrbVgDmfwnK1h">
    <mxGraphModel dx="336" dy="533" grid="0" gridSize="10" guides="1" tooltips="1" connect="1" arrows="1" fold="1" page="1" pageScale="1" pageWidth="827" pageHeight="1169" math="0" shadow="0">
      <root>
        <mxCell id="0" />
        <mxCell id="1" parent="0" />
        <mxCell id="MWRULVRWjAI7JQODRnuG-65" value="Class" style="swimlane;fontStyle=1;align=center;verticalAlign=top;childLayout=stackLayout;horizontal=1;startSize=26;horizontalStack=0;resizeParent=1;resizeParentMax=0;resizeLast=0;collapsible=1;marginBottom=0;whiteSpace=wrap;html=1;" vertex="1" parent="1">
          <mxGeometry x="27" y="320" width="160" height="34" as="geometry" />
        </mxCell>
        <mxCell id="MWRULVRWjAI7JQODRnuG-67" value="" style="line;strokeWidth=1;fillColor=none;align=left;verticalAlign=middle;spacingTop=-1;spacingLeft=3;spacingRight=3;rotatable=0;labelPosition=right;points=[];portConstraint=eastwest;strokeColor=inherit;" vertex="1" parent="MWRULVRWjAI7JQODRnuG-65">
          <mxGeometry y="26" width="160" height="8" as="geometry" />
        </mxCell>
        <mxCell id="MWRULVRWjAI7JQODRnuG-69" value="1" style="endArrow=open;html=1;endSize=12;startArrow=diamondThin;startSize=14;startFill=1;edgeStyle=orthogonalEdgeStyle;align=left;verticalAlign=bottom;rounded=0;entryX=0;entryY=0.5;entryDx=0;entryDy=0;exitX=1;exitY=0.5;exitDx=0;exitDy=0;" edge="1" parent="1" source="MWRULVRWjAI7JQODRnuG-65" target="MWRULVRWjAI7JQODRnuG-70">
          <mxGeometry x="-1" y="3" relative="1" as="geometry">
            <mxPoint x="193" y="431" as="sourcePoint" />
            <mxPoint x="353" y="431" as="targetPoint" />
          </mxGeometry>
        </mxCell>
        <mxCell id="MWRULVRWjAI7JQODRnuG-70" value="Association" style="swimlane;fontStyle=1;align=center;verticalAlign=top;childLayout=stackLayout;horizontal=1;startSize=26;horizontalStack=0;resizeParent=1;resizeParentMax=0;resizeLast=0;collapsible=1;marginBottom=0;whiteSpace=wrap;html=1;" vertex="1" parent="1">
          <mxGeometry x="344" y="320" width="160" height="34" as="geometry" />
        </mxCell>
        <mxCell id="MWRULVRWjAI7JQODRnuG-71" value="" style="line;strokeWidth=1;fillColor=none;align=left;verticalAlign=middle;spacingTop=-1;spacingLeft=3;spacingRight=3;rotatable=0;labelPosition=right;points=[];portConstraint=eastwest;strokeColor=inherit;" vertex="1" parent="MWRULVRWjAI7JQODRnuG-70">
          <mxGeometry y="26" width="160" height="8" as="geometry" />
        </mxCell>
        <mxCell id="MWRULVRWjAI7JQODRnuG-72" value="實心菱形" style="text;align=center;fontStyle=1;verticalAlign=middle;spacingLeft=3;spacingRight=3;strokeColor=none;rotatable=0;points=[[0,0.5],[1,0.5]];portConstraint=eastwest;html=1;" vertex="1" parent="1">
          <mxGeometry x="196" y="284" width="80" height="26" as="geometry" />
        </mxCell>
        <mxCell id="MWRULVRWjAI7JQODRnuG-73" value="類與關聯關係之間有組合關係，類不存在了，則相應的關聯關係也不存在了" style="html=1;whiteSpace=wrap;" vertex="1" parent="1">
          <mxGeometry x="519" y="305" width="168" height="64" as="geometry" />
        </mxCell>
      </root>
    </mxGraphModel>
  </diagram>
</mxfile>
